<mxfile host="app.diagrams.net" modified="2023-04-12T14:23:29.679Z" agent="Mozilla/5.0 (Windows NT 10.0; Win64; x64) AppleWebKit/537.36 (KHTML, like Gecko) Chrome/111.0.0.0 Safari/537.36" version="21.1.1" etag="WEvikbzLeIPMVq0HTFuG" type="github">
  <diagram name="Page-1" id="36O_xAzQSIieC-77jgUb">
    <mxGraphModel>
      <root>
        <mxCell id="0" />
        <mxCell id="1" parent="0" />
      </root>
    </mxGraphModel>
  </diagram>
</mxfile>
